<svg xmlns="http://www.w3.org/2000/svg" viewBox="0 0 24 24" id="AmazonMusic">
  <path d="M1.57853 5.52271c-.20138-.2441-.5343-.33554-.832105-.22855-.297809.10699-.496425.38939-.496425.70583v5.00001c0 .4142.335788.75.75.75.41422 0 .75-.3358.75-.75v-2.91238l.17147.20784c.14248.1727.35465.27272.57853.27272.22388 0 .43606-.10002.57853-.27272l.17147-.20784v2.91238c0 .4142.33579.75.75.75.41422 0 .75-.3358.75-.75v-5.00001c0-.31644-.19861-.59884-.49642-.70583-.29781-.10699-.63073-.01555-.83211.22855l-.92147 1.11693-.92147-1.11693zM7 5.24999c.41422 0 .75.33579.75.75v4c0 .13811.11193.25001.25.25001h1c.13807 0 .25-.1119.25-.25001v-4c0-.41421.33579-.75.75-.75.4142 0 .75.33579.75.75v4c0 .96651-.7835 1.75001-1.75 1.75001h-1c-.9665 0-1.75-.7835-1.75-1.75001v-4c0-.41421.33579-.75.75-.75zM18 5.24999c.4142 0 .75.33579.75.75v5.00001c0 .4142-.3358.75-.75.75-.4142 0-.75-.3358-.75-.75v-5.00001c0-.41421.3358-.75.75-.75zM14.25 5.24999c-1.1046 0-2 .89543-2 2v.25c0 .9665.7835 1.75 1.75 1.75.1381 0 .25.11193.25.25v.25c0 .27611-.2239.50001-.5.50001h-.75c-.4142 0-.75.3358-.75.75 0 .4142.3358.75.75.75h.75c1.1046 0 2-.8954 2-2.00001v-.25c0-.96649-.7835-1.75-1.75-1.75-.1381 0-.25-.11193-.25-.25v-.25c0-.27614.2239-.5.5-.5h.75c.4142 0 .75-.33578.75-.75 0-.41421-.3358-.75-.75-.75h-.75zM16.7679 13.8373c.0898-.4044.4905-.6593.8948-.5694l4.5 1c.3983.0885.6528.4791.5727.8792l-1 5c-.0812.4062-.4763.6696-.8825.5883-.4062-.0812-.6696-.4763-.5883-.8825l.856-4.28-3.7833-.8408c-.4043-.0898-.6593-.4905-.5694-.8948z" fill="#ffeb5a" class="color000000 svgShape"></path>
  <path d="M.456556 15.4831c.285466-.3001.760194-.312 1.06032-.0266 1.6836 1.6013 5.15078 2.7935 9.29392 2.7935 3.294 0 6.1904-.756 8.0876-1.8933.3552-.2129.8159-.0976 1.0289.2577.2129.3552.0976.8159-.2577 1.0289-2.186 1.3104-5.3666 2.1067-8.8588 2.1067-4.34477 0-8.25602-1.2362-10.3277-3.2066-.300137-.2854-.31203-.7602-.026564-1.0603zM22 5.24999c-.9665 0-1.75.78351-1.75 1.75v3c0 .96651.7835 1.75001 1.75 1.75001h1c.4142 0 .75-.3358.75-.75 0-.4142-.3358-.75-.75-.75h-1c-.1381 0-.25-.1119-.25-.25001v-3c0-.13807.1119-.25.25-.25h1c.4142 0 .75-.33578.75-.75 0-.41421-.3358-.75-.75-.75h-1z" fill="#ffeb5a" class="color000000 svgShape"></path>
</svg>
